<svg width="1440" height="422" viewBox="0 0 1440 422" fill="none" xmlns="http://www.w3.org/2000/svg">
<g clip-path="url(#clip0_694_9812)">
<mask id="mask0_694_9812" style="mask-type:alpha" maskUnits="userSpaceOnUse" x="-1799" y="-92" width="4805" height="514">
<path d="M3006 165C3006 306.937 1930.36 422 603.5 422C-723.364 422 -1799 306.937 -1799 165C-1799 23.0628 -723.364 -92 603.5 -92C1930.36 -92 3006 23.0628 3006 165Z" fill="url(#paint0_radial_694_9812)"/>
</mask>
<g mask="url(#mask0_694_9812)">
<path opacity="0.5" d="M1010.52 8.67433C858.744 9.5412 710.001 27.1097 558.855 34.6803C407.076 42.2221 257.828 27.8321 107.145 16.3606C-9.34466 67.8525 -103.363 165.202 -239.078 183.724C-320.954 194.906 -345.492 252.148 -390.393 295.318C-441.998 344.903 -518.604 382.063 -585.344 421.881H2024.4C1855.42 353.013 1686.44 284.145 1517.46 215.278C1433.77 180.979 1353.71 150.089 1283.01 103.336C1249.07 80.9133 1218.33 56.1786 1176.09 40.8062C1124.69 22.1108 1065.75 20.4926 1010.52 8.67433Z" stroke="#FAC6F7" stroke-miterlimit="10"/>
<path opacity="0.5" d="M1919.38 379.086H-513.672" stroke="#FAC6F7" stroke-miterlimit="10"/>
<path opacity="0.5" d="M1827.68 341.695H-450.979" stroke="#FAC6F7" stroke-miterlimit="10"/>
<path opacity="0.5" d="M1746.94 308.783C1552.33 308.783 1364.42 314.071 1171.07 328.606C998.886 341.551 844.536 329.212 675.556 307.194C511.888 285.84 345.986 289.857 180.042 285.378C-12.1977 279.871 -204.772 284.934 -395.831 300.519" stroke="#FAC6F7" stroke-miterlimit="10"/>
<path opacity="0.5" d="M1675.27 279.599C1584.12 279.599 1492.21 276.218 1402.19 287.747C1310.58 299.479 1222.63 321.439 1131.9 335.685C949.853 364.263 828.051 323.895 664.214 273.328C519.266 228.627 375.287 231.805 219.925 222.096C16.9634 209.411 -148.939 209.267 -346.926 247.698" stroke="#FAC6F7" stroke-miterlimit="10"/>
<path opacity="0.5" d="M1611.23 253.477C1517.08 253.477 1431.58 255.355 1340.51 274.369C1258.77 291.475 1180.01 315.285 1096.74 329.01C921.353 357.906 801.322 296.907 654.055 241.428C519.899 190.86 382.582 196.177 234.514 184.677C42.261 169.767 -116.727 160.78 -303.119 204.152" stroke="#FAC6F7" stroke-miterlimit="10"/>
<path opacity="0.5" d="M1553.68 230.043C1383.73 230.649 1231.36 274.08 1065.33 290.29C908.663 305.547 786.018 256.829 644.948 218.745C514.587 183.579 385.407 186.324 247.837 178.609C72.617 168.726 -90.4604 158.382 -263.825 185.832" stroke="#FAC6F7" stroke-miterlimit="10"/>
<path opacity="0.5" d="M1501.61 208.805C1345.24 211.694 1192.7 236.804 1036.7 241.457C897.953 245.589 770.88 220.132 636.641 201.003C512.056 183.376 386.333 186.757 259.809 182.943C96.6467 178.06 -65.4611 170.807 -228.328 182.654" stroke="#FAC6F7" stroke-miterlimit="10"/>
<path opacity="0.5" d="M1454.43 189.242C1177.1 191.727 906.341 197.911 629.219 186.353C356.523 175.199 76.914 178.002 -196.034 181.701" stroke="#FAC6F7" stroke-miterlimit="10"/>
<path opacity="0.5" d="M1411.38 172.136C885.388 171.963 359.391 171.963 -166.605 172.136" stroke="#FAC6F7" stroke-miterlimit="10"/>
<path opacity="0.5" d="M1371.92 155.348C1119.97 150.436 868.146 148.673 616.109 146.361C364.073 144.05 112.542 156.041 -139.663 156.041" stroke="#FAC6F7" stroke-miterlimit="10"/>
<path opacity="0.5" d="M1335.67 136.479C1094.13 123.216 852.549 119.142 610.504 113.709C365.972 108.219 128.776 141.362 -114.66 141.189" stroke="#FAC6F7" stroke-miterlimit="10"/>
<path opacity="0.5" d="M1302.19 116.05C1070.81 94.5231 838.171 89.2063 605.065 80.4799C365.002 71.4934 145.513 124.95 -92.0624 127.551" stroke="#FAC6F7" stroke-miterlimit="10"/>
<path opacity="0.5" d="M1271.24 95.3609C1050.2 67.6211 824.341 61.582 600.173 50.6884C493.548 45.5161 394.597 46.354 289.786 63.6047C168.995 83.5137 53.9811 109.606 -70.8989 114.952" stroke="#FAC6F7" stroke-miterlimit="10"/>
<path opacity="0.5" d="M1242.53 75.7697C1031.39 44.6491 810.848 39.3324 595.618 26.9362C495.908 21.1571 405.178 21.0126 308.082 38.8701C187.165 61.1197 74.2167 93.0781 -51.2957 102.816" stroke="#FAC6F7" stroke-miterlimit="10"/>
<path opacity="0.5" d="M1215.8 58.6923C1013.98 27.3117 797.862 22.6884 591.359 10.4656C501.219 5.11994 414.284 3.70406 325.747 19.6833C204.071 41.7017 92.3869 78.3124 -33.1676 91.2288" stroke="#FAC6F7" stroke-miterlimit="10"/>
<path opacity="0.5" d="M1190.88 45.689C995.175 18.036 786.859 14.3952 587.439 3.29929C368.203 -8.92353 195.007 53.1152 -16.007 79.439" stroke="#FAC6F7" stroke-miterlimit="10"/>
<path opacity="0.5" d="M1167.57 36.5582C976.92 13.933 776.994 11.7658 583.729 3.27055C375.413 -5.77377 201.543 43.3487 -0.0697137 68.5456" stroke="#FAC6F7" stroke-miterlimit="10"/>
<path opacity="0.5" d="M1145.73 30.4034C959.886 13.0661 767.76 13.0661 580.271 7.57596C382.791 1.79685 207.908 37.9164 14.8122 59.1835" stroke="#FAC6F7" stroke-miterlimit="10"/>
<path opacity="0.5" d="M1125.2 26.3871C943.91 13.8753 759.078 16.447 577.112 14.0486C389.708 11.5925 214.109 35.3447 29.0235 51.2951" stroke="#FAC6F7" stroke-miterlimit="10"/>
<path opacity="0.5" d="M1105.93 23.7864C751.19 7.40264 395.101 24.3643 42.0048 44.7357" stroke="#FAC6F7" stroke-miterlimit="10"/>
<path opacity="0.5" d="M1087.72 21.9661C744.993 12.6906 396.956 29.6812 54.4428 39.3034" stroke="#FAC6F7" stroke-miterlimit="10"/>
<path opacity="0.5" d="M1070.56 20.3765C736.393 16.5045 400.92 34.5932 66.1645 34.362" stroke="#FAC6F7" stroke-miterlimit="10"/>
<path opacity="0.5" d="M1054.33 18.5855C890.745 18.441 728.932 30.635 565.812 36.8475C402.693 43.0601 239.699 34.218 77.2543 29.9414" stroke="#FAC6F7" stroke-miterlimit="10"/>
<path opacity="0.5" d="M1038.98 16.1873C879.4 16.9385 722.267 31.2996 563.364 38.408C404.46 45.5163 245.936 33.149 87.7491 25.5783" stroke="#FAC6F7" stroke-miterlimit="10"/>
<path opacity="0.5" d="M1024.39 12.9216C868.695 13.9618 716.031 30.0566 561.049 37.6272C406.066 45.1979 252.011 31.068 97.7028 21.0701" stroke="#FAC6F7" stroke-miterlimit="10"/>
<path opacity="0.5" d="M141.928 18.7875C74.4706 46.7295 27.2507 78.5724 -26.4198 117.928C-46.657 132.78 -68.2012 151.245 -92.4014 163.121C-129.503 181.325 -127.732 173.726 -171.537 176.471C-250.715 181.383 -265.176 230.621 -299.663 275.582C-345.155 334.934 -415.436 376.052 -485.17 421.881" stroke="#FAC6F7" stroke-miterlimit="10"/>
<path opacity="0.5" d="M176.668 21.5324C113.216 45.1979 77.3375 65.9159 33.912 106.341C14.8553 124.054 -4.28555 146.014 -28.9917 160.433C-65.2077 181.556 -65.25 168.38 -103.954 172.945C-141.645 177.366 -129.545 162.023 -163.822 185.284C-196.538 207.504 -207.121 249.692 -225.882 277.749C-264.965 336.118 -321.25 375.272 -384.575 421.909" stroke="#FAC6F7" stroke-miterlimit="10"/>
<path opacity="0.5" d="M211.492 24.3066C141.084 46.9607 119.582 59.4147 78.2644 107.67C61.828 129.343 42.2511 149.827 19.8296 168.813C2.43132 184.089 -16.288 185.178 -36.3284 172.078C-57.212 157.958 -75.9311 159.663 -92.4862 177.193C-115.257 213.072 -134.828 249.866 -151.09 287.372C-181.656 341.204 -231.574 377.902 -284.317 421.881" stroke="#FAC6F7" stroke-miterlimit="10"/>
<path opacity="0.5" d="M246.148 27.0515C225.15 32.1551 203.516 35.9368 181.516 38.3497C155.792 59.7332 136.156 84.2375 123.63 110.589C110.54 134.404 92.4755 156.79 70.0011 177.048C54.7671 182.018 41.8097 180.66 31.129 172.974C20.5607 165.577 7.61738 163.766 -7.701 167.542C-33.4733 199.301 -51.5832 233.706 -61.3295 269.428C-89.1134 330.657 -130.431 370.418 -183.848 421.736" stroke="#FAC6F7" stroke-miterlimit="10"/>
<path opacity="0.5" d="M280.891 29.6813C261.595 31.9376 241.961 32.5104 222.456 31.3861C198.343 57.67 180.762 86.5144 170.43 116.744C162.251 131.249 154.099 145.755 145.976 160.26C137.207 182.568 121.453 187.586 98.7144 175.315C81.8501 163.256 70.0591 164.556 63.3415 179.216C39.5076 199.786 26.6807 225.333 26.999 251.599C0.943688 318.059 -32.3211 363.887 -83.4621 421.881" stroke="#FAC6F7" stroke-miterlimit="10"/>
<path opacity="0.5" d="M315.631 32.0795C298.536 32.5054 281.71 29.0742 267.736 22.3128C240.416 62.6221 238.224 122.754 205.043 159.047C149.855 219.207 180.843 147.748 147.03 172.31C98.8406 207.302 107.104 275.958 86.6562 318.463C69.3704 354.438 41.3333 388.102 16.9223 421.881" stroke="#FAC6F7" stroke-miterlimit="10"/>
<path opacity="0.5" d="M350.369 34.1309C334.931 30.0606 321.181 23.4637 310.316 14.9153C296.699 46.7005 289.236 149.453 258.164 171.963C238.728 186.122 231.139 171.963 217.605 182.365C187.502 205.482 183.286 283.789 175.445 306.356C161.742 346.232 138.68 383.767 117.178 421.938" stroke="#FAC6F7" stroke-miterlimit="10"/>
<path opacity="0.5" d="M385.109 35.778C374.232 27.1094 364.029 18.4407 354.121 9.16524C343.244 53.5199 353.278 125.557 320.393 160.838C325.845 174.785 321.629 181.99 307.744 182.452C301.521 183.4 295.185 183.961 288.814 184.128C266.807 214.642 269.884 259.256 262.717 291.937C252.851 336.899 235.355 378.277 217.689 421.967" stroke="#FAC6F7" stroke-miterlimit="10"/>
<path opacity="0.5" d="M419.85 36.9051C412.464 25.9396 406.167 14.6447 401.004 3.09731C379.923 146.419 353.404 278.356 318.031 421.881" stroke="#FAC6F7" stroke-miterlimit="10"/>
<path opacity="0.5" d="M454.633 37.5698C451.822 25.1447 449.574 12.6714 447.887 0.150024C440.551 141.276 430.77 280.87 418.375 422.025" stroke="#FAC6F7" stroke-miterlimit="10"/>
<path opacity="0.5" d="M489.372 37.1362C491.648 24.9037 493.461 12.652 494.811 0.381027C500.797 141.074 508.766 281.217 518.758 421.881" stroke="#FAC6F7" stroke-miterlimit="10"/>
<path opacity="0.5" d="M524.114 36.1251C531.193 25.0719 537.069 13.6753 541.695 2.02834C561.174 143.039 586.723 281.68 619.145 421.881" stroke="#FAC6F7" stroke-miterlimit="10"/>
<path opacity="0.5" d="M558.855 34.6799C570.012 25.2441 579.971 15.1708 588.62 4.57065C621.834 145.114 665.527 284.4 719.529 421.88" stroke="#FAC6F7" stroke-miterlimit="10"/>
<path opacity="0.5" d="M593.596 32.5994C610.425 26.5741 624.045 17.0572 632.51 5.40863C667.883 88.9457 684.368 174.39 722.481 257.754C748.114 313.84 789.601 366.545 819.914 421.88" stroke="#FAC6F7" stroke-miterlimit="10"/>
<path opacity="0.5" d="M628.335 30.2592C638.181 29.3087 647.562 26.7803 655.715 22.8792C663.868 18.9782 670.564 13.8146 675.26 7.80739C734.285 89.0617 751.571 193.606 793.31 280.957C821.473 339.875 818.817 300.664 852.335 331.987C880.878 358.628 899.723 392.407 920.551 421.881" stroke="#FAC6F7" stroke-miterlimit="10"/>
<path opacity="0.5" d="M663.075 27.6586C673.825 27.6508 684.458 26.1341 694.319 23.202C704.181 20.27 713.062 15.9847 720.414 10.6102C794.701 96.3723 813.631 209.469 864.983 302.831C906.258 377.959 880.161 318.406 937.246 333.2C964.567 340.28 1008.5 407.722 1020.72 421.881" stroke="#FAC6F7" stroke-miterlimit="10"/>
<path opacity="0.5" d="M697.817 24.8844C709.044 26.347 720.61 26.035 731.635 23.972C742.659 21.909 752.852 18.1494 761.437 12.9794C794.575 31.9349 813.562 56.7852 818.396 87.5301C847.065 144.223 881.637 198.345 909.421 255.298C920.327 282.749 933.087 309.804 947.703 336.465C964.089 354.361 981.67 355.103 1000.45 338.69C1028.55 328.326 1047.55 335.358 1057.45 359.784L1121.03 421.881" stroke="#FAC6F7" stroke-miterlimit="10"/>
<path opacity="0.5" d="M732.557 22.0524C744.095 24.5557 756.31 25.2347 768.285 24.0386C780.261 22.8425 791.685 19.8023 801.701 15.1463C836.891 27.032 857.634 47.1337 863.93 75.4514C901.874 136.537 945.722 195.83 977.005 258.591C986.158 289.877 1005.04 319.443 1032.36 345.278C1042.66 346.171 1053.12 345.567 1063.06 343.506C1073 341.445 1082.19 337.973 1090.04 333.315C1146.62 337.014 1187.85 393.476 1221.41 421.823" stroke="#FAC6F7" stroke-miterlimit="10"/>
<path opacity="0.5" d="M767.34 19.2787C803.851 30.4612 825.817 12.517 858.492 22.6594C893.864 33.6686 907.862 67.043 924.009 89.5815C964.61 145.841 1008.33 198.893 1044.46 256.54C1059.81 280.928 1071.99 330.802 1118.54 336.87C1137.51 339.326 1161.12 326.092 1180.68 328.519C1232.58 335.021 1288.19 396.915 1321.71 421.881" stroke="#FAC6F7" stroke-miterlimit="10"/>
<path opacity="0.5" d="M802.08 16.5913C837.79 28.843 864.52 14.7131 898.712 22.3704C944.709 32.715 964.23 73.14 985.352 100.62C1025.28 152.401 1073.38 199.645 1112.13 252.003C1130.38 276.709 1149.65 310.373 1190.38 319.677C1212.01 324.618 1233.64 319.677 1255.64 323.722C1319.64 335.714 1374.92 390.384 1422.14 421.967" stroke="#FAC6F7" stroke-miterlimit="10"/>
<path opacity="0.5" d="M836.82 14.1639C878.686 29.3341 916.377 10.8987 957.568 25.1731C990.538 36.7313 1012.38 69.47 1029.87 89.8125C1075.87 143.298 1129.29 192.739 1179.67 244.259C1236 301.877 1268.21 292.573 1347.22 320.63C1411.93 343.544 1468.3 389.2 1522.52 421.765" stroke="#FAC6F7" stroke-miterlimit="10"/>
<path opacity="0.5" d="M871.559 12.0546C913.719 26.0112 957.356 11.5633 997.661 23.9884C1042.86 37.9161 1065.79 75.307 1091.51 101.66C1138.27 149.453 1193.24 192.565 1247.21 236.689C1298.39 278.53 1355.56 285.378 1421 312.077C1492.67 341.32 1557.85 386.108 1622.9 421.88" stroke="#FAC6F7" stroke-miterlimit="10"/>
<path opacity="0.5" d="M906.301 10.3786C948.926 19.423 997.073 13.2682 1037.29 24.393C1082.83 37.136 1107.28 69.9902 1135.19 95.3605C1189.03 144.483 1248.35 186.815 1314.8 227.991C1373.48 264.342 1448.87 284.135 1513.25 315.631C1583.99 350.306 1653.3 386.483 1723.29 421.88" stroke="#FAC6F7" stroke-miterlimit="10"/>
<path opacity="0.5" d="M940.873 9.19389C985.226 18.8739 1033.63 14.973 1076.34 26.2712C1129.54 40.5167 1163.23 79.8147 1197.51 108.392C1249.74 152.025 1314.8 189.011 1382.17 221.49C1525.89 290.839 1678.01 353.774 1823.46 421.88" stroke="#FAC6F7" stroke-miterlimit="10"/>
<path opacity="0.5" d="M975.782 8.67433C1021.36 18.6144 1071.32 17.343 1115.38 29.1324C1169.55 43.7246 1202.77 76.8679 1240.64 105.099C1301.98 150.812 1373.65 183.608 1449.92 216.578C1608.05 284.906 1766.08 353.341 1924.02 421.881" stroke="#FAC6F7" stroke-miterlimit="10"/>
</g>
</g>
<defs>
<radialGradient id="paint0_radial_694_9812" cx="0" cy="0" r="1" gradientUnits="userSpaceOnUse" gradientTransform="translate(603.5 165) rotate(90) scale(215.986 2019.09)">
<stop stop-color="#0E1111"/>
<stop offset="1" stop-color="#0E1111" stop-opacity="0"/>
</radialGradient>
<clipPath id="clip0_694_9812">
<rect width="1440" height="422" fill="white"/>
</clipPath>
</defs>
</svg>
