<svg width="212" height="606" viewBox="0 0 212 606" fill="none" xmlns="http://www.w3.org/2000/svg">
<mask id="mask0_369_64162" style="mask-type:alpha" maskUnits="userSpaceOnUse" x="0" y="0" width="212" height="606">
<path fill-rule="evenodd" clip-rule="evenodd" d="M91.3654 83.0929L89.4422 77.1737C89.8455 75.1312 91.5365 70.9782 95.0746 70.7061C98.6127 70.4341 100.613 70.5928 101.171 70.7061C101.171 67.6686 99.3991 65.6247 98.5131 64.9825C100.323 63.8037 103.942 63.509 105.526 63.509C104.847 61.9676 102.34 61.1289 101.171 60.9022C102.845 59.2248 107.147 59.2966 109.089 59.5421C108.32 57.4113 107.637 56.5008 107.392 56.3119C109.881 55.2692 111.86 50.5882 112.539 48.3781C109.654 49.6815 103.886 45.1479 104.282 41.861C104.544 39.6794 107.573 35.8249 109.199 34.0098C109.549 33.8245 109.843 33.5924 110.05 33.3038C110.488 32.6941 110.023 33.0903 109.199 34.0098C107.79 34.756 105.475 34.7435 104.282 34.6073C105.611 32.1447 106.797 28.7045 107.247 27.4002L107.269 27.3369C107.328 27.2453 107.37 27.1561 107.392 27.0701C107.486 26.7107 107.433 26.8598 107.269 27.3369C106.61 28.3555 103.834 29.6717 102.415 30.2437C105.854 27.9768 106.977 24.3877 107.109 22.8765C100.685 27.8635 93.1593 23.2921 90.1996 20.383C92.5522 19.839 96.4583 19.2496 98.1172 19.023C94.0453 14.8974 86.467 16.4728 83.1868 17.7762C82.9154 11.8825 85.1097 8.67122 86.2408 7.80227C82.3498 8.66366 79.7558 13.0726 78.9452 15.1694C78.538 7.96095 70.5563 2.53195 66.6163 0.718506C69.2555 4.5343 73.7874 12.0865 70.8014 11.7692C67.8153 11.4518 63.3362 7.44336 61.4699 5.4788C60.6102 6.83888 60.0937 8.19897 59.9429 8.709C49.8988 9.2077 46.4829 5.17656 46.0305 3.09866C45.4875 5.2748 46.2567 8.95457 46.7091 10.5224C38.1581 9.66106 35.7564 5.21434 35.6244 3.09866C35.8959 8.44832 39.2062 13.8282 40.8274 15.8494C32.3669 16.3935 26.7076 13.8093 24.9356 12.4492C25.388 16.3935 30.7419 21.9131 33.3622 24.18C31.6844 25.0489 28.261 26.7868 27.9895 26.7868C22.0174 32.2271 12.3805 32.9449 8.30856 32.6238C10.2314 37.2707 20.6375 41.9177 21.0899 41.9177C19.8231 43.0058 16.9803 46.678 15.7172 48.3781C17.4642 46.5994 19.4237 46.1258 20.185 46.1113C18.149 49.8289 11.8338 51.2872 8.93066 51.5516C11.8715 55.1332 15.6984 55.9152 17.2442 55.8586C14.8915 57.536 15.2459 59.8066 15.7172 60.7322C17.7079 59.5081 20.1285 60.8644 21.0899 61.6956C18.1491 62.1489 15.6795 65.927 14.8123 67.7593C15.2082 67.0037 16.5203 65.6512 18.6015 66.2859C20.6827 66.9206 24.4455 66.8148 26.0667 66.6826C25.931 67.4533 24.658 68.9898 24.0384 69.6618L29.6584 69.0871L30.4613 72.535L45.9449 95.5206H51.2208L59.7081 92.8772L60.7404 95.5206L58.2171 97.8191L56.8408 101.727L35.5078 121.494L17.5009 131.493L14.5189 133.447L12.6838 139.423L10.734 164.018L10.1605 194.359L6.49032 209.599L9.24296 220.103L5.68746 221.941L1.4438 227.458L2.01726 232.055L3.62298 239.41L1.4438 244.008L0.526184 254.121V262.856L12.9131 293.542L15.2069 295.725L18.4184 293.542L20.0241 295.151V299.748L25.0707 311.815V317.217L28.0527 321.584L30.1171 348.247L32.2963 357.097L32.9845 360.085L34.5902 371.578L37.3428 389.162L34.0167 393.759L32.9845 398.816L34.5902 405.252L43.7657 431.455V439.27L46.8558 451.323L48.3669 453.112V469.769L49.8781 478.441L62.2418 505.559L63.2035 516.159L60.8681 519.325L69.9348 529.787L74.4682 531.714L80.3754 543.139L75.4299 550.573L76.5289 564.201L71.8581 573.01L63.2035 580.719C59.5768 580.719 57.7542 584.574 57.2963 586.501L58.3953 594.76H56.1974V603.57L82.0239 605.91C95.201 605.783 99.0294 602.143 100.191 601.038C100.289 600.945 100.368 600.87 100.432 600.817C101.092 600.266 105.195 598.201 107.164 597.238V593.108L118.428 596.137C129.528 597.678 141.645 596.779 146.316 596.137V590.217L145.354 587.602L144.53 584.023L142.469 580.719L137.936 578.241L134.227 571.359L133.402 564.201V561.034L134.227 558.694L129.006 550.573V543.139L126.534 541.487V535.43L141.645 529.787H145.354L142.469 510.79L145.354 502.393V490.968C145.4 484.957 145.656 472.301 146.316 469.769C146.975 467.236 147.872 455.682 148.239 450.221L150.712 337.344L164.449 344.777C171.043 340.28 186.539 330.488 195.771 327.295C205.002 324.101 209.874 317.154 211.157 314.08C207.64 305.16 200.716 291.825 197.694 286.273L172.142 259.017L178.187 219.097L180.934 214.141V209.599C180.705 208.773 180.22 206.818 180.11 205.607C180 204.395 178.049 201.339 177.088 199.963L175.851 195.696L178.187 191.703V188.4L169.395 170.091L170.631 158.666V154.536L166.372 143.662L165.548 134.576V125.629L161.427 113.515L158.817 108.422L154.421 106.77L111.147 94.7937L96.9979 86.672L95.0746 83.0929H91.3654ZM90.9852 332.937C90.9285 333.221 88.174 343.803 86.8038 349.058V355.449L81.6302 368.09C81.4885 369.179 81.6302 372.309 83.3311 376.115C85.0321 379.922 84.4179 392.425 83.8981 398.201C86.2133 401.042 90.8435 407.561 90.8435 410.913C90.8435 413.52 88.6482 417.118 86.7677 420.199C85.6261 422.069 84.6005 423.75 84.2525 424.903C83.6144 427.018 84.37 428.247 85.0597 429.369C85.3659 429.868 85.6591 430.345 85.8117 430.869C85.8264 430.919 85.8424 430.974 85.8594 431.032C86.4143 432.925 88.0998 438.675 86.4495 445.427C88.7646 447.155 93.324 452.628 93.0406 460.696C92.7571 468.763 93.6784 484.273 94.1745 491.02L98.0724 494.854C98.8993 494.097 100.666 492.539 101.12 492.369C101.573 492.198 103.813 491.398 104.876 491.02L105.372 452.316C104.309 451.866 102.608 449.02 104.309 441.237C105.463 435.956 106.158 435.383 106.121 434.861C106.09 434.421 105.54 434.018 104.309 430.869C103.887 429.79 103.483 428.815 103.106 427.906C101.074 423.012 99.8314 420.018 100.907 412.831L100.966 412.44C102.191 404.255 102.451 402.521 101.474 397.207C100.68 392.889 99.4898 385.75 98.9938 382.72C98.6158 377.417 97.8173 365.619 97.6472 360.847C97.4771 356.074 93.135 340.252 90.9852 332.937Z" fill="#0E1111"/>
</mask>
<g mask="url(#mask0_369_64162)">
<mask id="path-2-inside-1_369_64162" fill="white">
<path fill-rule="evenodd" clip-rule="evenodd" d="M91.4793 83.2392L89.5535 77.3241C89.9573 75.283 91.6506 71.1328 95.1935 70.861C98.7363 70.5891 100.74 70.7477 101.298 70.861C101.298 67.8255 99.5239 65.783 98.6367 65.1412C100.449 63.9633 104.073 63.6688 105.659 63.6688C104.979 62.1284 102.469 61.2903 101.298 61.0638C102.975 59.3875 107.282 59.4592 109.227 59.7046C108.457 57.5753 107.773 56.6654 107.528 56.4766C110.02 55.4346 112.002 50.7569 112.681 48.5483C109.793 49.8508 104.017 45.3203 104.413 42.0357C104.676 39.8555 107.709 36.0037 109.337 34.1898C109.688 34.0046 109.982 33.7727 110.189 33.4844C110.627 32.875 110.163 33.2709 109.337 34.1898C107.927 34.9355 105.608 34.923 104.413 34.7869C105.744 32.326 106.932 28.8881 107.382 27.5848L107.404 27.5215C107.463 27.43 107.505 27.3409 107.528 27.2549C107.621 26.8957 107.569 27.0448 107.404 27.5215C106.745 28.5394 103.964 29.8547 102.544 30.4263C105.987 28.161 107.112 24.5744 107.245 23.0642C100.811 28.0478 93.2756 23.4795 90.3119 20.5724C92.6677 20.0288 96.579 19.4398 98.2402 19.2133C94.1628 15.0905 86.5742 16.6649 83.2896 17.9674C83.0178 12.0777 85.215 8.86864 86.3477 8.00029C82.4514 8.86108 79.854 13.267 79.0422 15.3624C78.6345 8.15885 70.6419 2.73358 66.6966 0.921387C69.3394 4.73456 73.8775 12.2816 70.8873 11.9645C67.8972 11.6473 63.412 7.64163 61.5432 5.67841C60.6824 7.03756 60.1651 8.39671 60.0141 8.90639C49.9564 9.40475 46.5359 5.37638 46.0828 3.29991C45.5392 5.47455 46.3094 9.1518 46.7624 10.7186C38.1998 9.8578 35.7948 5.41414 35.6627 3.29991C35.9345 8.6459 39.2493 14.0221 40.8728 16.0419C32.4007 16.5856 26.7338 14.0032 24.9594 12.6441C25.4124 16.5856 30.7735 22.1015 33.3974 24.3667C31.7174 25.2351 28.2893 26.9718 28.0175 26.9718C22.0372 32.4084 12.3872 33.1257 8.3098 32.8048C10.2353 37.4485 20.6554 42.0923 21.1085 42.0923C19.8399 43.1796 16.9933 46.8493 15.7285 48.5483C17.4779 46.7708 19.44 46.2975 20.2024 46.283C18.1636 49.998 11.8398 51.4553 8.93274 51.7196C11.8776 55.2987 15.7096 56.0802 17.2575 56.0236C14.9017 57.6999 15.2566 59.9689 15.7285 60.8939C17.7219 59.6706 20.1457 61.026 21.1085 61.8566C18.1636 62.3097 15.6907 66.0851 14.8224 67.9161C15.2188 67.1611 16.5327 65.8095 18.6167 66.4437C20.7007 67.078 24.4686 66.9723 26.092 66.8401C25.9561 67.6103 24.6814 69.1458 24.061 69.8173L29.6886 69.2431L30.4926 72.6885L45.9972 95.6584H51.2802L59.7791 93.0168L60.8127 95.6584L58.286 97.9553L56.9079 101.86L35.5459 121.614L17.5146 131.606L14.5285 133.559L12.6909 139.531L10.7385 164.108L10.1643 194.429L6.48909 209.658L9.24547 220.155L5.68515 221.992L1.43573 227.505L2.00998 232.099L3.61787 239.449L1.43573 244.043L0.516876 254.15V262.879L12.9206 293.543L15.2175 295.726L18.4333 293.543L20.0412 295.151V299.745L25.0946 311.804V317.202L28.0807 321.567L30.148 348.212L32.3301 357.055L33.0192 360.041L34.6271 371.526L37.3834 389.098L34.0528 393.692L33.0192 398.745L34.6271 405.177L43.815 431.362V439.172L46.9093 451.216L48.4225 453.004V469.649L49.9357 478.316L62.3162 505.415L63.2791 516.008L60.9406 519.171L70.0196 529.626L74.5592 531.552L80.4743 542.97L75.5221 550.398L76.6226 564.016L71.9455 572.82L63.2791 580.524C59.6475 580.524 57.8225 584.376 57.364 586.301L58.4645 594.555H56.2635V603.359L82.1251 605.698C95.3201 605.571 99.1536 601.933 100.317 600.829C100.415 600.736 100.494 600.661 100.558 600.608C101.219 600.057 105.327 597.994 107.299 597.031V592.904L118.579 595.931C129.694 597.471 141.827 596.573 146.504 595.931V590.016L145.541 587.402L144.716 583.825L142.652 580.524L138.113 578.048L134.398 571.17L133.573 564.016V560.853L134.398 558.514L129.171 550.398V542.97L126.695 541.319V535.266L141.827 529.626H145.541L142.652 510.643L145.541 502.251V490.834C145.587 484.827 145.844 472.18 146.504 469.649C147.164 467.118 148.063 455.572 148.43 450.116L150.906 337.315L164.662 344.744C171.265 340.25 186.782 330.465 196.026 327.273C205.27 324.082 210.149 317.14 211.433 314.067C207.911 305.153 200.978 291.828 197.952 286.28L172.365 259.043L178.418 219.15L181.169 214.198V209.658C180.94 208.833 180.454 206.879 180.344 205.669C180.234 204.458 178.281 201.405 177.318 200.029L176.08 195.765L178.418 191.775V188.474L169.614 170.178L170.852 158.76V154.634L166.588 143.766L165.763 134.687V125.746L161.636 113.64L159.022 108.551L154.62 106.9L111.288 94.932L97.1193 86.8159L95.1935 83.2392H91.4793ZM91.0985 332.912C91.0418 333.196 88.2835 343.77 86.9115 349.022V355.409L81.7309 368.041C81.5889 369.129 81.7309 372.256 83.4341 376.06C85.1373 379.864 84.5223 392.359 84.0019 398.131C86.3201 400.97 90.9567 407.485 90.9567 410.834C90.9567 413.44 88.7584 417.035 86.8753 420.114C85.7322 421.983 84.7052 423.662 84.3567 424.815C83.7178 426.928 84.4744 428.157 85.165 429.278C85.4716 429.776 85.7653 430.253 85.918 430.776C85.9328 430.827 85.9488 430.881 85.9658 430.939C86.5215 432.831 88.2092 438.577 86.5567 445.325C88.875 447.051 93.4406 452.521 93.1567 460.583C92.8728 468.644 93.7954 484.144 94.2922 490.886L98.1954 494.718C99.0233 493.961 100.793 492.404 101.247 492.234C101.701 492.064 103.944 491.264 105.008 490.886L105.505 452.208C104.441 451.759 102.737 448.916 104.441 441.137C105.596 435.86 106.292 435.287 106.255 434.766C106.224 434.326 105.674 433.924 104.441 430.776C104.018 429.698 103.613 428.724 103.235 427.816C101.201 422.925 99.9567 419.933 101.034 412.75L101.093 412.36C102.32 404.181 102.58 402.448 101.602 397.138C100.807 392.823 99.6147 385.688 99.118 382.66C98.7394 377.361 97.9399 365.571 97.7696 360.802C97.5992 356.033 93.2512 340.222 91.0985 332.912Z"/>
</mask>
<path fill-rule="evenodd" clip-rule="evenodd" d="M91.4793 83.2392L89.5535 77.3241C89.9573 75.283 91.6506 71.1328 95.1935 70.861C98.7363 70.5891 100.74 70.7477 101.298 70.861C101.298 67.8255 99.5239 65.783 98.6367 65.1412C100.449 63.9633 104.073 63.6688 105.659 63.6688C104.979 62.1284 102.469 61.2903 101.298 61.0638C102.975 59.3875 107.282 59.4592 109.227 59.7046C108.457 57.5753 107.773 56.6654 107.528 56.4766C110.02 55.4346 112.002 50.7569 112.681 48.5483C109.793 49.8508 104.017 45.3203 104.413 42.0357C104.676 39.8555 107.709 36.0037 109.337 34.1898C109.688 34.0046 109.982 33.7727 110.189 33.4844C110.627 32.875 110.163 33.2709 109.337 34.1898C107.927 34.9355 105.608 34.923 104.413 34.7869C105.744 32.326 106.932 28.8881 107.382 27.5848L107.404 27.5215C107.463 27.43 107.505 27.3409 107.528 27.2549C107.621 26.8957 107.569 27.0448 107.404 27.5215C106.745 28.5394 103.964 29.8547 102.544 30.4263C105.987 28.161 107.112 24.5744 107.245 23.0642C100.811 28.0478 93.2756 23.4795 90.3119 20.5724C92.6677 20.0288 96.579 19.4398 98.2402 19.2133C94.1628 15.0905 86.5742 16.6649 83.2896 17.9674C83.0178 12.0777 85.215 8.86864 86.3477 8.00029C82.4514 8.86108 79.854 13.267 79.0422 15.3624C78.6345 8.15885 70.6419 2.73358 66.6966 0.921387C69.3394 4.73456 73.8775 12.2816 70.8873 11.9645C67.8972 11.6473 63.412 7.64163 61.5432 5.67841C60.6824 7.03756 60.1651 8.39671 60.0141 8.90639C49.9564 9.40475 46.5359 5.37638 46.0828 3.29991C45.5392 5.47455 46.3094 9.1518 46.7624 10.7186C38.1998 9.8578 35.7948 5.41414 35.6627 3.29991C35.9345 8.6459 39.2493 14.0221 40.8728 16.0419C32.4007 16.5856 26.7338 14.0032 24.9594 12.6441C25.4124 16.5856 30.7735 22.1015 33.3974 24.3667C31.7174 25.2351 28.2893 26.9718 28.0175 26.9718C22.0372 32.4084 12.3872 33.1257 8.3098 32.8048C10.2353 37.4485 20.6554 42.0923 21.1085 42.0923C19.8399 43.1796 16.9933 46.8493 15.7285 48.5483C17.4779 46.7708 19.44 46.2975 20.2024 46.283C18.1636 49.998 11.8398 51.4553 8.93274 51.7196C11.8776 55.2987 15.7096 56.0802 17.2575 56.0236C14.9017 57.6999 15.2566 59.9689 15.7285 60.8939C17.7219 59.6706 20.1457 61.026 21.1085 61.8566C18.1636 62.3097 15.6907 66.0851 14.8224 67.9161C15.2188 67.1611 16.5327 65.8095 18.6167 66.4437C20.7007 67.078 24.4686 66.9723 26.092 66.8401C25.9561 67.6103 24.6814 69.1458 24.061 69.8173L29.6886 69.2431L30.4926 72.6885L45.9972 95.6584H51.2802L59.7791 93.0168L60.8127 95.6584L58.286 97.9553L56.9079 101.86L35.5459 121.614L17.5146 131.606L14.5285 133.559L12.6909 139.531L10.7385 164.108L10.1643 194.429L6.48909 209.658L9.24547 220.155L5.68515 221.992L1.43573 227.505L2.00998 232.099L3.61787 239.449L1.43573 244.043L0.516876 254.15V262.879L12.9206 293.543L15.2175 295.726L18.4333 293.543L20.0412 295.151V299.745L25.0946 311.804V317.202L28.0807 321.567L30.148 348.212L32.3301 357.055L33.0192 360.041L34.6271 371.526L37.3834 389.098L34.0528 393.692L33.0192 398.745L34.6271 405.177L43.815 431.362V439.172L46.9093 451.216L48.4225 453.004V469.649L49.9357 478.316L62.3162 505.415L63.2791 516.008L60.9406 519.171L70.0196 529.626L74.5592 531.552L80.4743 542.97L75.5221 550.398L76.6226 564.016L71.9455 572.82L63.2791 580.524C59.6475 580.524 57.8225 584.376 57.364 586.301L58.4645 594.555H56.2635V603.359L82.1251 605.698C95.3201 605.571 99.1536 601.933 100.317 600.829C100.415 600.736 100.494 600.661 100.558 600.608C101.219 600.057 105.327 597.994 107.299 597.031V592.904L118.579 595.931C129.694 597.471 141.827 596.573 146.504 595.931V590.016L145.541 587.402L144.716 583.825L142.652 580.524L138.113 578.048L134.398 571.17L133.573 564.016V560.853L134.398 558.514L129.171 550.398V542.97L126.695 541.319V535.266L141.827 529.626H145.541L142.652 510.643L145.541 502.251V490.834C145.587 484.827 145.844 472.18 146.504 469.649C147.164 467.118 148.063 455.572 148.43 450.116L150.906 337.315L164.662 344.744C171.265 340.25 186.782 330.465 196.026 327.273C205.27 324.082 210.149 317.14 211.433 314.067C207.911 305.153 200.978 291.828 197.952 286.28L172.365 259.043L178.418 219.15L181.169 214.198V209.658C180.94 208.833 180.454 206.879 180.344 205.669C180.234 204.458 178.281 201.405 177.318 200.029L176.08 195.765L178.418 191.775V188.474L169.614 170.178L170.852 158.76V154.634L166.588 143.766L165.763 134.687V125.746L161.636 113.64L159.022 108.551L154.62 106.9L111.288 94.932L97.1193 86.8159L95.1935 83.2392H91.4793ZM91.0985 332.912C91.0418 333.196 88.2835 343.77 86.9115 349.022V355.409L81.7309 368.041C81.5889 369.129 81.7309 372.256 83.4341 376.06C85.1373 379.864 84.5223 392.359 84.0019 398.131C86.3201 400.97 90.9567 407.485 90.9567 410.834C90.9567 413.44 88.7584 417.035 86.8753 420.114C85.7322 421.983 84.7052 423.662 84.3567 424.815C83.7178 426.928 84.4744 428.157 85.165 429.278C85.4716 429.776 85.7653 430.253 85.918 430.776C85.9328 430.827 85.9488 430.881 85.9658 430.939C86.5215 432.831 88.2092 438.577 86.5567 445.325C88.875 447.051 93.4406 452.521 93.1567 460.583C92.8728 468.644 93.7954 484.144 94.2922 490.886L98.1954 494.718C99.0233 493.961 100.793 492.404 101.247 492.234C101.701 492.064 103.944 491.264 105.008 490.886L105.505 452.208C104.441 451.759 102.737 448.916 104.441 441.137C105.596 435.86 106.292 435.287 106.255 434.766C106.224 434.326 105.674 433.924 104.441 430.776C104.018 429.698 103.613 428.724 103.235 427.816C101.201 422.925 99.9567 419.933 101.034 412.75L101.093 412.36C102.32 404.181 102.58 402.448 101.602 397.138C100.807 392.823 99.6147 385.688 99.118 382.66C98.7394 377.361 97.9399 365.571 97.7696 360.802C97.5992 356.033 93.2512 340.222 91.0985 332.912Z" fill="#0E1111"/>
<path d="M89.5535 77.3241L88.5725 77.13L88.5219 77.3858L88.6026 77.6337L89.5535 77.3241ZM91.4793 83.2392L90.5284 83.5488L90.7532 84.2392H91.4793V83.2392ZM101.298 70.861L101.1 71.841L102.298 72.084V70.861H101.298ZM98.6367 65.1412L98.0917 64.3028L96.8696 65.0971L98.0505 65.9514L98.6367 65.1412ZM105.659 63.6688V64.6688H107.193L106.574 63.2652L105.659 63.6688ZM101.298 61.0638L100.591 60.3567L99.2601 61.6878L101.108 62.0456L101.298 61.0638ZM109.227 59.7046L109.101 60.6968L110.723 60.9014L110.167 59.3645L109.227 59.7046ZM107.528 56.4766L107.142 55.5541L105.552 56.2188L106.918 57.2693L107.528 56.4766ZM112.681 48.5483L113.637 48.8424L114.288 46.7267L112.27 47.6367L112.681 48.5483ZM104.413 42.0357L105.406 42.1555L104.413 42.0357ZM110.189 33.4844L109.377 32.9007L110.189 33.4844ZM104.413 34.7869L103.533 34.3111L102.829 35.6129L104.3 35.7804L104.413 34.7869ZM107.382 27.5848L106.437 27.2583L106.437 27.2583L107.382 27.5848ZM107.528 27.2549L106.56 27.0025V27.0025L107.528 27.2549ZM102.544 30.4263L101.995 29.5908L102.918 31.354L102.544 30.4263ZM107.245 23.0642L108.241 23.1514L108.44 20.8731L106.632 22.2737L107.245 23.0642ZM90.3119 20.5724L90.087 19.598L88.3088 20.0084L89.6116 21.2863L90.3119 20.5724ZM98.2402 19.2133L98.3754 20.2041L100.359 19.9336L98.9512 18.5101L98.2402 19.2133ZM83.2896 17.9674L82.2906 18.0135L82.3553 19.4137L83.6582 18.897L83.2896 17.9674ZM86.3477 8.00029L86.9561 8.79389L86.1319 7.02384L86.3477 8.00029ZM79.0422 15.3624L78.0438 15.4189L79.9747 15.7236L79.0422 15.3624ZM66.6966 0.921387L67.114 0.0126652L63.7928 -1.51286L65.8747 1.49102L66.6966 0.921387ZM70.8873 11.9645L70.9928 10.9701L70.8873 11.9645ZM61.5432 5.67841L62.2675 4.98893L61.384 4.0608L60.6984 5.14336L61.5432 5.67841ZM60.0141 8.90639L60.0636 9.90517L60.7716 9.87009L60.9729 9.19048L60.0141 8.90639ZM46.0828 3.29991L47.0599 3.08674L45.1127 3.05737L46.0828 3.29991ZM46.7624 10.7186L46.6624 11.7136L48.1339 11.8615L47.7231 10.4408L46.7624 10.7186ZM35.6627 3.29991L36.6607 3.23753L34.664 3.35069L35.6627 3.29991ZM40.8728 16.0419L40.9368 17.0399L42.8587 16.9166L41.6522 15.4155L40.8728 16.0419ZM24.9594 12.6441L25.5675 11.8502L23.6969 10.4174L23.9659 12.7583L24.9594 12.6441ZM33.3974 24.3667L33.8566 25.2551L35.1703 24.5761L34.0509 23.6098L33.3974 24.3667ZM28.0175 26.9718V25.9718H27.6309L27.3448 26.2318L28.0175 26.9718ZM8.3098 32.8048L8.38826 31.8078L6.76078 31.6798L7.38606 33.1878L8.3098 32.8048ZM21.1085 42.0923L21.7593 42.8515L23.8117 41.0923H21.1085V42.0923ZM15.7285 48.5483L14.9264 47.9511L16.4412 49.2497L15.7285 48.5483ZM20.2024 46.283L21.079 46.7641L21.9097 45.2504L20.1834 45.2832L20.2024 46.283ZM8.93274 51.7196L8.84221 50.7237L6.9592 50.8949L8.16053 52.355L8.93274 51.7196ZM17.2575 56.0236L17.8373 56.8384L20.5585 54.9021L17.221 55.0242L17.2575 56.0236ZM15.7285 60.8939L14.8377 61.3483L15.3294 62.312L16.2515 61.7462L15.7285 60.8939ZM21.1085 61.8566L21.2605 62.845L23.4029 62.5154L21.7617 61.0994L21.1085 61.8566ZM14.8224 67.9161L13.9188 67.4877L15.7078 68.381L14.8224 67.9161ZM18.6167 66.4437L18.3255 67.4004L18.3255 67.4004L18.6167 66.4437ZM26.092 66.8401L27.0768 67.0139L27.3019 65.7384L26.0109 65.8434L26.092 66.8401ZM24.061 69.8173L23.3265 69.1387L21.5325 71.0805L24.1625 70.8122L24.061 69.8173ZM29.6886 69.2431L30.6625 69.0158L30.4625 68.1589L29.5871 68.2482L29.6886 69.2431ZM30.4926 72.6885L29.5187 72.9158L29.5606 73.0953L29.6637 73.248L30.4926 72.6885ZM45.9972 95.6584L45.1683 96.2178L45.4657 96.6584H45.9972V95.6584ZM51.2802 95.6584V96.6584H51.4321L51.5771 96.6133L51.2802 95.6584ZM59.7791 93.0168L60.7103 92.6524L60.3711 91.7856L59.4823 92.0619L59.7791 93.0168ZM60.8127 95.6584L61.4854 96.3983L61.9949 95.9352L61.744 95.294L60.8127 95.6584ZM58.286 97.9553L57.6134 97.2154L57.4269 97.3849L57.3431 97.6225L58.286 97.9553ZM56.9079 101.86L57.5868 102.594L57.7685 102.426L57.8508 102.193L56.9079 101.86ZM35.5459 121.614L36.0306 122.489L36.1362 122.43L36.2249 122.348L35.5459 121.614ZM17.5146 131.606L17.0299 130.731L16.9979 130.749L16.9674 130.769L17.5146 131.606ZM14.5285 133.559L13.9813 132.722L13.679 132.919L13.5728 133.264L14.5285 133.559ZM12.6909 139.531L11.7352 139.237L11.7028 139.342L11.6941 139.452L12.6909 139.531ZM10.7385 164.108L9.74165 164.029L9.73926 164.059L9.73869 164.089L10.7385 164.108ZM10.1643 194.429L11.1364 194.663L11.162 194.557L11.1641 194.448L10.1643 194.429ZM6.48909 209.658L5.517 209.424L5.4579 209.669L5.52189 209.912L6.48909 209.658ZM9.24547 220.155L9.70411 221.043L10.4162 220.676L10.2127 219.901L9.24547 220.155ZM5.68515 221.992L5.22651 221.104L5.0289 221.206L4.89314 221.382L5.68515 221.992ZM1.43573 227.505L0.643723 226.895L0.392394 227.221L0.443455 227.629L1.43573 227.505ZM2.00998 232.099L1.0177 232.223L1.02335 232.268L1.03308 232.313L2.00998 232.099ZM3.61787 239.449L4.52114 239.879L4.66782 239.57L4.59477 239.236L3.61787 239.449ZM1.43573 244.043L0.532456 243.614L0.455979 243.775L0.43984 243.953L1.43573 244.043ZM0.516876 254.15L-0.479016 254.06L-0.483124 254.105V254.15H0.516876ZM0.516876 262.879H-0.483124V263.073L-0.410157 263.254L0.516876 262.879ZM12.9206 293.543L11.9935 293.918L12.0748 294.119L12.2318 294.268L12.9206 293.543ZM15.2175 295.726L14.5287 296.451L15.1126 297.005L15.779 296.553L15.2175 295.726ZM18.4333 293.543L19.1405 292.836L18.5559 292.252L17.8718 292.716L18.4333 293.543ZM20.0412 295.151H21.0412V294.737L20.7483 294.444L20.0412 295.151ZM20.0412 299.745H19.0412V299.946L19.1189 300.132L20.0412 299.745ZM25.0946 311.804H26.0946V311.603L26.0169 311.418L25.0946 311.804ZM25.0946 317.202H24.0946V317.512L24.2693 317.767L25.0946 317.202ZM28.0807 321.567L29.0777 321.489L29.057 321.223L28.906 321.002L28.0807 321.567ZM30.148 348.212L29.151 348.289L29.1573 348.371L29.1771 348.451L30.148 348.212ZM32.3301 357.055L33.3045 356.83L33.3028 356.823L33.3009 356.815L32.3301 357.055ZM33.0192 360.041L34.0095 359.902L34.0034 359.859L33.9936 359.816L33.0192 360.041ZM34.6271 371.526L33.6368 371.665L33.6379 371.673L33.6392 371.681L34.6271 371.526ZM37.3834 389.098L38.193 389.685L38.4353 389.351L38.3713 388.943L37.3834 389.098ZM34.0528 393.692L33.2432 393.105L33.1164 393.28L33.0731 393.491L34.0528 393.692ZM33.0192 398.745L32.0394 398.545L31.9939 398.767L32.049 398.988L33.0192 398.745ZM34.6271 405.177L33.657 405.419L33.6682 405.464L33.6835 405.508L34.6271 405.177ZM43.815 431.362H44.815V431.192L44.7586 431.031L43.815 431.362ZM43.815 439.172H42.815V439.298L42.8465 439.421L43.815 439.172ZM46.9093 451.216L45.9407 451.465L45.9978 451.687L46.1459 451.862L46.9093 451.216ZM48.4225 453.004H49.4225V452.638L49.1858 452.358L48.4225 453.004ZM48.4225 469.649H47.4225V469.736L47.4374 469.821L48.4225 469.649ZM49.9357 478.316L48.9506 478.488L48.9727 478.614L49.0261 478.731L49.9357 478.316ZM62.3162 505.415L63.3121 505.325L63.2967 505.155L63.2258 505L62.3162 505.415ZM63.2791 516.008L64.0833 516.602L64.3095 516.296L64.275 515.917L63.2791 516.008ZM60.9406 519.171L60.1364 518.577L59.6599 519.222L60.1856 519.827L60.9406 519.171ZM70.0196 529.626L69.2646 530.282L69.4162 530.456L69.6291 530.547L70.0196 529.626ZM74.5592 531.552L75.4471 531.092L75.2814 530.772L74.9497 530.631L74.5592 531.552ZM80.4743 542.97L81.3064 543.524L81.6336 543.033L81.3622 542.51L80.4743 542.97ZM75.5221 550.398L74.6901 549.843L74.4974 550.132L74.5254 550.478L75.5221 550.398ZM76.6226 564.016L77.5057 564.486L77.6429 564.227L77.6193 563.936L76.6226 564.016ZM71.9455 572.82L72.6099 573.568L72.7443 573.448L72.8286 573.29L71.9455 572.82ZM63.2791 580.524V581.524H63.6593L63.9435 581.271L63.2791 580.524ZM57.364 586.301L56.3912 586.07L56.3483 586.25L56.3728 586.434L57.364 586.301ZM58.4645 594.555V595.555H59.6067L59.4557 594.423L58.4645 594.555ZM56.2635 594.555V593.555H55.2635V594.555H56.2635ZM56.2635 603.359H55.2635V604.273L56.1735 604.355L56.2635 603.359ZM82.1251 605.698L82.0351 606.693L82.0848 606.698L82.1348 606.698L82.1251 605.698ZM100.317 600.829L101.005 601.555H101.006L100.317 600.829ZM100.558 600.608L101.198 601.376L101.199 601.376L100.558 600.608ZM107.299 597.031L107.738 597.93L108.299 597.656V597.031H107.299ZM107.299 592.904L107.558 591.938L106.299 591.601V592.904H107.299ZM118.579 595.931L118.32 596.897L118.38 596.913L118.442 596.921L118.579 595.931ZM146.504 595.931L146.64 596.921L147.504 596.803V595.931H146.504ZM146.504 590.016H147.504V589.837L147.442 589.67L146.504 590.016ZM145.541 587.402L144.567 587.627L144.581 587.688L144.603 587.748L145.541 587.402ZM144.716 583.825L145.69 583.6L145.652 583.437L145.564 583.295L144.716 583.825ZM142.652 580.524L143.5 579.994L143.361 579.772L143.131 579.646L142.652 580.524ZM138.113 578.048L137.233 578.523L137.374 578.784L137.634 578.926L138.113 578.048ZM134.398 571.17L133.405 571.284L133.427 571.476L133.519 571.645L134.398 571.17ZM133.573 564.016H132.573V564.074L132.58 564.131L133.573 564.016ZM133.573 560.853L132.63 560.52L132.573 560.681V560.853H133.573ZM134.398 558.514L135.341 558.847L135.505 558.385L135.239 557.973L134.398 558.514ZM129.171 550.398H128.171V550.692L128.33 550.939L129.171 550.398ZM129.171 542.97H130.171V542.434L129.726 542.138L129.171 542.97ZM126.695 541.319H125.695V541.854L126.14 542.151L126.695 541.319ZM126.695 535.266L126.346 534.329L125.695 534.572V535.266H126.695ZM141.827 529.626V528.626H141.647L141.478 528.689L141.827 529.626ZM145.541 529.626V530.626H146.705L146.53 529.476L145.541 529.626ZM142.652 510.643L141.707 510.317L141.627 510.55L141.664 510.793L142.652 510.643ZM145.541 502.251L146.487 502.577L146.541 502.419V502.251H145.541ZM145.541 490.834L144.541 490.826V490.834H145.541ZM146.504 469.649L147.472 469.902L146.504 469.649ZM148.43 450.116L149.428 450.183L149.429 450.16L149.43 450.138L148.43 450.116ZM150.906 337.315L151.381 336.435L149.942 335.658L149.906 337.293L150.906 337.315ZM164.662 344.744L164.187 345.623L164.722 345.912L165.225 345.57L164.662 344.744ZM196.026 327.273L196.352 328.219L196.026 327.273ZM211.433 314.067L212.356 314.453L212.512 314.078L212.363 313.7L211.433 314.067ZM197.952 286.28L198.83 285.801L198.768 285.689L198.681 285.595L197.952 286.28ZM172.365 259.043L171.377 258.893L171.304 259.373L171.637 259.728L172.365 259.043ZM178.418 219.15L177.544 218.664L177.456 218.822L177.429 219L178.418 219.15ZM181.169 214.198L182.044 214.683L182.169 214.457V214.198H181.169ZM181.169 209.658H182.169V209.522L182.133 209.391L181.169 209.658ZM180.344 205.669L179.348 205.759V205.759L180.344 205.669ZM177.318 200.029L176.357 200.308L176.403 200.467L176.498 200.602L177.318 200.029ZM176.08 195.765L175.217 195.259L174.999 195.63L175.119 196.043L176.08 195.765ZM178.418 191.775L179.281 192.281L179.418 192.047V191.775H178.418ZM178.418 188.474H179.418V188.246L179.319 188.04L178.418 188.474ZM169.614 170.178L168.62 170.07L168.589 170.354L168.713 170.612L169.614 170.178ZM170.852 158.76L171.846 158.868L171.852 158.815V158.76H170.852ZM170.852 154.634H171.852V154.444L171.783 154.268L170.852 154.634ZM166.588 143.766L165.592 143.857L165.605 143.999L165.657 144.132L166.588 143.766ZM165.763 134.687H164.763V134.733L164.767 134.778L165.763 134.687ZM165.763 125.746H166.763V125.58L166.709 125.423L165.763 125.746ZM161.636 113.64L162.582 113.318L162.559 113.249L162.525 113.184L161.636 113.64ZM159.022 108.551L159.912 108.094L159.735 107.75L159.373 107.614L159.022 108.551ZM154.62 106.9L154.971 105.964L154.929 105.948L154.886 105.936L154.62 106.9ZM111.288 94.932L110.791 95.7997L110.9 95.8623L111.022 95.8959L111.288 94.932ZM97.1193 86.8159L96.2389 87.29L96.3744 87.5416L96.6223 87.6836L97.1193 86.8159ZM95.1935 83.2392L96.074 82.7651L95.7908 82.2392H95.1935V83.2392ZM86.9115 349.022L85.944 348.769L85.9115 348.893V349.022H86.9115ZM91.0985 332.912L92.0578 332.63L90.1179 332.716L91.0985 332.912ZM86.9115 355.409L87.8367 355.788L87.9115 355.606V355.409H86.9115ZM81.7309 368.041L80.8056 367.662L80.7561 367.782L80.7393 367.912L81.7309 368.041ZM84.0019 398.131L83.0059 398.041L82.9693 398.448L83.2273 398.764L84.0019 398.131ZM86.8753 420.114L87.7284 420.635L86.8753 420.114ZM84.3567 424.815L83.3995 424.526L84.3567 424.815ZM85.165 429.278L86.0165 428.754L86.0165 428.754L85.165 429.278ZM85.918 430.776L84.958 431.056L85.918 430.776ZM85.9658 430.939L85.0063 431.221L85.0063 431.221L85.9658 430.939ZM86.5567 445.325L85.5854 445.087L85.4277 445.731L85.9593 446.126L86.5567 445.325ZM93.1567 460.583L94.1561 460.618L93.1567 460.583ZM94.2922 490.886L93.2949 490.959L93.3226 491.335L93.5916 491.599L94.2922 490.886ZM98.1954 494.718L97.4948 495.432L98.1709 496.095L98.8701 495.456L98.1954 494.718ZM101.247 492.234L101.598 493.17L101.247 492.234ZM105.008 490.886L105.343 491.828L105.999 491.595L106.008 490.899L105.008 490.886ZM105.505 452.208L106.505 452.221L106.514 451.549L105.894 451.287L105.505 452.208ZM104.441 441.137L105.417 441.351L104.441 441.137ZM106.255 434.766L107.253 434.696L106.255 434.766ZM104.441 430.776L105.372 430.411L104.441 430.776ZM103.235 427.816L104.159 427.432H104.159L103.235 427.816ZM101.034 412.75L100.045 412.602V412.602L101.034 412.75ZM101.093 412.36L100.104 412.212L100.104 412.212L101.093 412.36ZM101.602 397.138L100.618 397.319L101.602 397.138ZM99.118 382.66L98.1205 382.732L98.1237 382.777L98.1311 382.822L99.118 382.66ZM97.7696 360.802L96.7702 360.838L97.7696 360.802ZM88.6026 77.6337L90.5284 83.5488L92.4302 82.9297L90.5044 77.0145L88.6026 77.6337ZM95.117 69.8639C92.932 70.0315 91.3848 71.3971 90.3736 72.8606C89.3637 74.3223 88.7951 76.0047 88.5725 77.13L90.5345 77.5182C90.7156 76.6024 91.1957 75.1892 92.0191 73.9975C92.8412 72.8077 93.9121 71.9622 95.27 71.858L95.117 69.8639ZM101.497 69.8809C100.801 69.7397 98.6868 69.59 95.117 69.8639L95.27 71.858C98.7859 71.5883 100.679 71.7557 101.1 71.841L101.497 69.8809ZM98.0505 65.9514C98.7373 66.4483 100.298 68.2134 100.298 70.861H102.298C102.298 67.4377 100.31 65.1178 99.2228 64.331L98.0505 65.9514ZM105.659 62.6688C104.817 62.6688 103.46 62.746 102.069 62.9768C100.708 63.2026 99.1783 63.5965 98.0917 64.3028L99.1816 65.9797C99.9072 65.508 101.095 65.1657 102.396 64.9498C103.667 64.7389 104.915 64.6688 105.659 64.6688V62.6688ZM101.108 62.0456C101.619 62.1445 102.45 62.3846 103.215 62.7676C104.013 63.1679 104.548 63.6286 104.744 64.0724L106.574 63.2652C106.09 62.1686 105.03 61.4401 104.111 60.9796C103.157 60.5018 102.148 60.2096 101.488 60.082L101.108 62.0456ZM109.352 58.7125C108.319 58.5821 106.677 58.4986 105.057 58.6691C103.499 58.8331 101.691 59.2566 100.591 60.3567L102.005 61.7709C102.582 61.1947 103.766 60.8159 105.267 60.6581C106.706 60.5067 108.19 60.5817 109.101 60.6968L109.352 58.7125ZM106.918 57.2693C106.876 57.2372 107.028 57.3655 107.314 57.8619C107.577 58.3194 107.917 59.0244 108.286 60.0448L110.167 59.3645C109.766 58.2555 109.379 57.4409 109.047 56.864C108.737 56.3258 108.425 55.9049 108.137 55.684L106.918 57.2693ZM111.725 48.2542C111.403 49.3034 110.764 50.956 109.914 52.4573C109.49 53.2069 109.026 53.8956 108.539 54.4471C108.046 55.0053 107.573 55.3738 107.142 55.5541L107.914 57.3992C108.728 57.0585 109.437 56.4515 110.038 55.7705C110.645 55.0828 111.187 54.2687 111.654 53.4425C112.588 51.7923 113.28 50.0017 113.637 48.8424L111.725 48.2542ZM103.42 41.9158C103.284 43.0444 103.683 44.173 104.279 45.1447C104.882 46.1291 105.744 47.0483 106.697 47.7982C107.65 48.5476 108.737 49.1608 109.818 49.4969C110.882 49.828 112.061 49.9251 113.092 49.4599L112.27 47.6367C111.858 47.8227 111.231 47.8419 110.412 47.5872C109.61 47.3376 108.736 46.8571 107.933 46.226C107.132 45.5956 106.443 44.8477 105.984 44.0996C105.518 43.3387 105.344 42.6693 105.406 42.1555L103.42 41.9158ZM108.593 33.5217C107.756 34.4539 106.562 35.9057 105.536 37.4129C105.024 38.1667 104.543 38.9495 104.169 39.6992C103.803 40.4345 103.506 41.2038 103.42 41.9158L105.406 42.1555C105.451 41.7774 105.632 41.2477 105.96 40.591C106.28 39.9485 106.708 39.2463 107.19 38.5378C108.154 37.1206 109.29 35.7396 110.082 34.8579L108.593 33.5217ZM109.377 32.9007C109.284 33.031 109.125 33.1712 108.87 33.3057L109.805 35.0739C110.251 34.838 110.681 34.5144 111.001 34.068L109.377 32.9007ZM110.082 34.8579C110.496 34.3968 110.775 34.1176 110.879 34.0311C110.921 33.9957 110.865 34.0509 110.756 34.102C110.722 34.1182 110.648 34.1506 110.548 34.1716C110.46 34.19 110.245 34.2229 109.993 34.1264C109.688 34.009 109.49 33.7641 109.407 33.51C109.339 33.3025 109.358 33.1295 109.368 33.0603C109.389 32.9181 109.438 32.8213 109.441 32.8152C109.453 32.7899 109.461 32.7781 109.456 32.7851C109.448 32.7982 109.425 32.8343 109.377 32.9007L111.001 34.068C111.063 33.9821 111.121 33.8973 111.168 33.8189C111.192 33.7803 111.221 33.7301 111.247 33.6737C111.265 33.6364 111.322 33.5156 111.346 33.3562C111.358 33.2786 111.377 33.0987 111.307 32.886C111.222 32.6268 111.021 32.3785 110.711 32.2594C110.455 32.1611 110.234 32.1939 110.139 32.2139C110.03 32.2364 109.948 32.272 109.903 32.293C109.754 32.3633 109.636 32.4635 109.596 32.4969C109.37 32.6857 109.004 33.0639 108.593 33.5217L110.082 34.8579ZM104.3 35.7804C104.955 35.8551 105.898 35.8946 106.875 35.8158C107.833 35.7384 108.923 35.5399 109.805 35.0739L108.87 33.3057C108.341 33.5854 107.566 33.7535 106.714 33.8223C105.879 33.8896 105.066 33.8548 104.526 33.7933L104.3 35.7804ZM106.437 27.2583C105.982 28.5765 104.819 31.9347 103.533 34.3111L105.293 35.2627C106.67 32.7173 107.882 29.1997 108.327 27.9113L106.437 27.2583ZM106.459 27.195L106.437 27.2583L108.327 27.9113L108.349 27.848L106.459 27.195ZM106.56 27.0025C106.566 26.9796 106.572 26.9664 106.573 26.9635C106.575 26.9606 106.573 26.9655 106.565 26.978L108.243 28.065C108.344 27.9099 108.439 27.7227 108.495 27.5073L106.56 27.0025ZM108.349 27.8481C108.391 27.7283 108.424 27.6329 108.449 27.5614C108.478 27.4782 108.487 27.4575 108.483 27.4656C108.483 27.466 108.47 27.4981 108.447 27.5396C108.44 27.5534 108.405 27.6175 108.346 27.6899C108.319 27.722 108.247 27.8081 108.128 27.8874C108.024 27.9569 107.703 28.1393 107.284 28.0131C106.865 27.8864 106.698 27.5551 106.649 27.4376C106.594 27.3046 106.582 27.1918 106.578 27.1503C106.569 27.0568 106.577 26.9839 106.578 26.9683C106.583 26.9211 106.59 26.8871 106.59 26.887C106.591 26.8793 106.585 26.9054 106.56 27.0025L108.495 27.5073C108.517 27.4248 108.54 27.3348 108.553 27.2689C108.556 27.2543 108.564 27.2094 108.569 27.1548C108.571 27.1355 108.578 27.0598 108.57 26.9643C108.566 26.9219 108.553 26.8083 108.498 26.6747C108.449 26.5567 108.282 26.2251 107.862 26.0983C107.443 25.972 107.122 26.1545 107.017 26.2243C106.898 26.304 106.825 26.3906 106.798 26.4235C106.737 26.4973 106.701 26.5638 106.692 26.5807C106.666 26.6287 106.648 26.6705 106.642 26.6838C106.603 26.7772 106.532 26.9832 106.459 27.1949L108.349 27.8481ZM102.918 31.354C103.656 31.0567 104.745 30.5681 105.743 30.0166C106.242 29.7411 106.736 29.4404 107.158 29.1309C107.561 28.8351 107.978 28.4753 108.243 28.065L106.565 26.978C106.501 27.0767 106.323 27.263 105.975 27.518C105.646 27.7593 105.232 28.014 104.776 28.2659C103.864 28.7694 102.853 29.2242 102.171 29.4986L102.918 31.354ZM106.248 22.977C106.136 24.2588 105.125 27.5316 101.995 29.5908L103.094 31.2617C106.85 28.7905 108.089 24.89 108.241 23.1514L106.248 22.977ZM89.6116 21.2863C91.1839 22.8286 93.9483 24.7999 97.1999 25.7381C100.485 26.686 104.329 26.5879 107.857 23.8548L106.632 22.2737C103.727 24.524 100.586 24.6336 97.7543 23.8165C94.8888 22.9897 92.4035 21.2233 91.0121 19.8585L89.6116 21.2863ZM98.1051 18.2224C96.4424 18.4492 92.4914 19.0432 90.087 19.598L90.5367 21.5468C92.8441 21.0144 96.7157 20.4304 98.3754 20.2041L98.1051 18.2224ZM83.6582 18.897C85.2088 18.2821 87.8068 17.5947 90.4822 17.5557C93.17 17.5166 95.7632 18.1308 97.5292 19.9165L98.9512 18.5101C96.6398 16.173 93.4 15.513 90.453 15.556C87.4936 15.5991 84.655 16.3502 82.921 17.0378L83.6582 18.897ZM85.7392 7.20668C84.2839 8.32247 82.0078 11.8852 82.2906 18.0135L84.2885 17.9213C84.0277 12.2703 86.1462 9.41481 86.9561 8.79389L85.7392 7.20668ZM79.9747 15.7236C80.3451 14.7674 81.1439 13.2401 82.3034 11.8622C83.4693 10.4768 84.9159 9.34073 86.5634 8.97674L86.1319 7.02384C83.8832 7.52065 82.083 9.01796 80.7731 10.5745C79.4569 12.1386 78.5511 13.8619 78.1098 15.0011L79.9747 15.7236ZM66.2792 1.83011C68.1641 2.6959 71.049 4.44404 73.4973 6.83549C75.9558 9.23697 77.8601 12.1731 78.0438 15.4189L80.0406 15.3058C79.8166 11.3481 77.5208 7.96985 74.8948 5.40477C72.2585 2.82967 69.1744 0.959073 67.114 0.0126652L66.2792 1.83011ZM70.7819 12.9589C71.3377 13.0179 71.9829 12.915 72.4341 12.3874C72.8431 11.9092 72.8929 11.3027 72.8636 10.8451C72.8042 9.91728 72.3578 8.73444 71.8095 7.56678C70.6838 5.16935 68.8526 2.27664 67.5185 0.351754L65.8747 1.49102C67.1834 3.3793 68.9426 6.16671 69.9991 8.41682C70.542 9.57293 70.8346 10.4557 70.8677 10.9729C70.8846 11.2378 70.819 11.1987 70.9142 11.0874C71.0516 10.9268 71.1845 10.9904 70.9928 10.9701L70.7819 12.9589ZM60.8189 6.36789C61.7851 7.38296 63.4158 8.9148 65.1978 10.241C66.0894 10.9045 67.0357 11.5291 67.9687 12.0125C68.891 12.4903 69.8587 12.861 70.7819 12.9589L70.9928 10.9701C70.4209 10.9094 69.7067 10.6604 68.8887 10.2367C68.0813 9.81838 67.2288 9.25939 66.3918 8.6365C64.7164 7.38971 63.1701 5.93708 62.2675 4.98893L60.8189 6.36789ZM60.9729 9.19048C61.1003 8.76044 61.5813 7.48717 62.388 6.21346L60.6984 5.14336C59.7835 6.58795 59.2299 8.03298 59.0553 8.62231L60.9729 9.19048ZM45.1058 3.51307C45.7127 6.29452 49.7943 10.414 60.0636 9.90517L59.9646 7.90762C50.1186 8.39549 47.3591 4.45825 47.0599 3.08674L45.1058 3.51307ZM47.7231 10.4408C47.5091 9.70086 47.2145 8.4395 47.0404 7.10764C46.8628 5.74841 46.8286 4.44018 47.053 3.54244L45.1127 3.05737C44.7935 4.33428 44.8724 5.952 45.0573 7.36675C45.2457 8.80887 45.5627 10.1695 45.8018 10.9964L47.7231 10.4408ZM34.6646 3.36229C34.836 6.10387 37.7648 10.8191 46.6624 11.7136L46.8624 9.72361C38.6348 8.89649 36.7537 4.7244 36.6607 3.23753L34.6646 3.36229ZM41.6522 15.4155C40.8909 14.4683 39.6982 12.6868 38.6657 10.4925C37.6316 8.29462 36.7884 5.74596 36.6614 3.24912L34.664 3.35069C34.8089 6.19984 35.7589 9.01227 36.856 11.344C37.9548 13.6792 39.2312 15.5957 40.0933 16.6684L41.6522 15.4155ZM24.3513 13.4379C26.3445 14.9646 32.2593 17.5967 40.9368 17.0399L40.8087 15.044C32.5422 15.5745 27.1232 13.0418 25.5675 11.8502L24.3513 13.4379ZM34.0509 23.6098C32.7767 22.5098 30.8252 20.608 29.145 18.5091C27.4277 16.3637 26.1441 14.1938 25.9528 12.5299L23.9659 12.7583C24.2277 15.0358 25.8512 17.5946 27.5837 19.7589C29.3533 21.9697 31.3942 23.9584 32.744 25.1237L34.0509 23.6098ZM28.0175 27.9718C28.2108 27.9718 28.3794 27.9139 28.4087 27.9045C28.4813 27.8814 28.5575 27.8526 28.629 27.824C28.7743 27.7659 28.9541 27.6869 29.1523 27.5963C29.5515 27.4138 30.0683 27.1645 30.6215 26.8918C31.7302 26.3453 33.0132 25.691 33.8566 25.2551L32.9383 23.4784C32.1016 23.9108 30.8306 24.559 29.7372 25.0979C29.1895 25.3679 28.6933 25.6071 28.3208 25.7773C28.1331 25.8631 27.9874 25.9266 27.8866 25.9669C27.8351 25.9875 27.8081 25.9969 27.7997 25.9995C27.7481 26.016 27.8581 25.9718 28.0175 25.9718V27.9718ZM8.23134 33.8017C10.366 33.9697 13.8978 33.8645 17.6679 33.0233C21.4334 32.1832 25.5252 30.5889 28.6901 27.7117L27.3448 26.2318C24.5295 28.7912 20.8062 30.2739 17.2323 31.0713C13.663 31.8677 10.3311 31.9608 8.38826 31.8078L8.23134 33.8017ZM21.1085 41.0923C21.1926 41.0923 21.2535 41.104 21.2661 41.1064C21.2776 41.1085 21.2859 41.1104 21.2905 41.1115C21.2952 41.1126 21.2978 41.1133 21.2981 41.1134C21.2982 41.1134 21.2932 41.1121 21.282 41.1085C21.2711 41.1051 21.2565 41.1003 21.2379 41.0939C21.1607 41.0672 21.0436 41.0227 20.8866 40.9583C20.575 40.8307 20.1402 40.6389 19.6169 40.3906C18.5709 39.8944 17.1949 39.1839 15.7758 38.3324C14.3534 37.479 12.9091 36.4967 11.7134 35.4596C10.501 34.4079 9.62659 33.3697 9.23354 32.4218L7.38606 33.1878C7.95574 34.5617 9.10588 35.8453 10.4029 36.9704C11.7168 38.1101 13.2668 39.1594 14.7468 40.0474C16.23 40.9374 17.6644 41.678 18.7597 42.1976C19.3071 42.4573 19.7757 42.6646 20.1283 42.809C20.3033 42.8807 20.4584 42.9405 20.5845 42.9841C20.6467 43.0056 20.7128 43.027 20.7766 43.0442C20.8079 43.0527 20.9474 43.0923 21.1085 43.0923V41.0923ZM16.5306 49.1454C17.1564 48.3048 18.1755 46.9741 19.1932 45.7215C20.2323 44.4425 21.2053 43.3264 21.7593 42.8515L20.4577 41.333C19.7431 41.9455 18.6585 43.2079 17.6409 44.4603C16.6019 45.7392 15.5653 47.0928 14.9264 47.9511L16.5306 49.1454ZM20.1834 45.2832C19.1652 45.3025 16.9524 45.8791 15.0158 47.8468L16.4412 49.2497C18.0033 47.6625 19.7147 47.2924 20.2214 47.2828L20.1834 45.2832ZM9.02328 52.7155C10.555 52.5763 12.9572 52.128 15.258 51.2264C17.5266 50.3375 19.8887 48.9331 21.079 46.7641L19.3257 45.8019C18.4773 47.3479 16.6581 48.5297 14.5283 49.3643C12.4308 50.1862 10.2176 50.5987 8.84221 50.7237L9.02328 52.7155ZM17.221 55.0242C15.9439 55.071 12.4271 54.3928 9.70496 51.0842L8.16053 52.355C11.328 56.2047 15.4753 57.0895 17.2941 57.0229L17.221 55.0242ZM16.6193 60.4394C16.471 60.1488 16.3104 59.5653 16.4193 58.9027C16.5222 58.2776 16.8731 57.5245 17.8373 56.8384L16.6778 55.2088C15.2862 56.199 14.6366 57.4185 14.4459 58.5782C14.2613 59.7005 14.5141 60.714 14.8377 61.3483L16.6193 60.4394ZM21.7617 61.0994C21.1929 60.6087 20.2239 59.9833 19.0897 59.6465C17.9472 59.3071 16.5241 59.2324 15.2055 60.0415L16.2515 61.7462C16.9264 61.3321 17.7118 61.3235 18.5202 61.5637C19.337 61.8063 20.0613 62.2739 20.4552 62.6138L21.7617 61.0994ZM15.7259 68.3446C16.1261 67.5008 16.9115 66.1822 17.9335 65.0347C18.9773 63.8627 20.1352 63.0181 21.2605 62.845L20.9564 60.8682C19.1369 61.1482 17.5859 62.4178 16.44 63.7045C15.2722 65.0157 14.387 66.5004 13.9188 67.4877L15.7259 68.3446ZM18.9079 65.4871C16.1961 64.6617 14.4633 66.4489 13.937 67.4513L15.7078 68.381C15.9743 67.8733 16.8693 66.9572 18.3255 67.4004L18.9079 65.4871ZM26.0109 65.8434C25.2313 65.9069 23.9193 65.965 22.5529 65.9297C21.1648 65.8938 19.8145 65.763 18.9078 65.4871L18.3255 67.4004C19.5029 67.7588 21.0785 67.8922 22.5012 67.929C23.9457 67.9664 25.3293 67.9055 26.1731 67.8369L26.0109 65.8434ZM24.7955 70.4959C25.1255 70.1387 25.6247 69.5576 26.0649 68.9567C26.2848 68.6564 26.5009 68.3366 26.6754 68.0274C26.8389 67.7378 27.0126 67.3776 27.0768 67.0139L25.1072 66.6664C25.1074 66.6657 25.1005 66.6996 25.069 66.7749C25.0389 66.8467 24.9945 66.9367 24.9337 67.0443C24.8116 67.2606 24.6447 67.511 24.4515 67.7748C24.0652 68.3021 23.6168 68.8245 23.3265 69.1387L24.7955 70.4959ZM29.5871 68.2482L23.9595 68.8225L24.1625 70.8122L29.7901 70.2379L29.5871 68.2482ZM31.4664 72.4613L30.6625 69.0158L28.7148 69.4703L29.5187 72.9158L31.4664 72.4613ZM46.826 95.0989L31.3214 72.1291L29.6637 73.248L45.1683 96.2178L46.826 95.0989ZM59.4823 92.0619L50.9834 94.7034L51.5771 96.6133L60.0759 93.9718L59.4823 92.0619ZM61.744 95.294L60.7103 92.6524L58.8478 93.3812L59.8815 96.0228L61.744 95.294ZM58.9587 98.6953L61.4854 96.3983L60.1401 94.9184L57.6134 97.2154L58.9587 98.6953ZM57.8508 102.193L59.229 98.2882L57.3431 97.6225L55.9649 101.527L57.8508 102.193ZM36.2249 122.348L57.5868 102.594L56.2289 101.126L34.867 120.88L36.2249 122.348ZM17.9993 132.481L36.0306 122.489L35.0612 120.74L17.0299 130.731L17.9993 132.481ZM15.0758 134.396L18.0619 132.443L16.9674 130.769L13.9813 132.722L15.0758 134.396ZM13.6467 139.825L15.4843 133.853L13.5728 133.264L11.7352 139.237L13.6467 139.825ZM11.7354 164.188L13.6878 139.61L11.6941 139.452L9.74165 164.029L11.7354 164.188ZM11.1641 194.448L11.7383 164.127L9.73869 164.089L9.16444 194.41L11.1641 194.448ZM7.46119 209.893L11.1364 194.663L9.19217 194.194L5.517 209.424L7.46119 209.893ZM10.2127 219.901L7.4563 209.404L5.52189 209.912L8.27827 220.409L10.2127 219.901ZM6.14379 222.881L9.70411 221.043L8.78683 219.266L5.22651 221.104L6.14379 222.881ZM2.22774 228.116L6.47716 222.603L4.89314 221.382L0.643723 226.895L2.22774 228.116ZM3.00226 231.975L2.42801 227.381L0.443455 227.629L1.0177 232.223L3.00226 231.975ZM4.59477 239.236L2.98688 231.885L1.03308 232.313L2.64097 239.663L4.59477 239.236ZM2.33901 244.473L4.52114 239.879L2.71459 239.02L0.532456 243.614L2.33901 244.473ZM1.51277 254.241L2.43163 244.134L0.43984 243.953L-0.479016 254.06L1.51277 254.241ZM1.51688 262.879V254.15H-0.483124V262.879H1.51688ZM13.8476 293.168L1.44391 262.504L-0.410157 263.254L11.9935 293.918L13.8476 293.168ZM15.9063 295.001L13.6093 292.818L12.2318 294.268L14.5287 296.451L15.9063 295.001ZM17.8718 292.716L14.656 294.898L15.779 296.553L18.9948 294.371L17.8718 292.716ZM20.7483 294.444L19.1405 292.836L17.7262 294.25L19.3341 295.858L20.7483 294.444ZM21.0412 299.745V295.151H19.0412V299.745H21.0412ZM26.0169 311.418L20.9635 299.359L19.1189 300.132L24.1723 312.191L26.0169 311.418ZM26.0946 317.202V311.804H24.0946V317.202H26.0946ZM28.906 321.002L25.9199 316.638L24.2693 317.767L27.2554 322.131L28.906 321.002ZM31.145 348.134L29.0777 321.489L27.0837 321.644L29.151 348.289L31.145 348.134ZM33.3009 356.815L31.1188 347.972L29.1771 348.451L31.3592 357.294L33.3009 356.815ZM33.9936 359.816L33.3045 356.83L31.3557 357.28L32.0448 360.266L33.9936 359.816ZM35.6174 371.387L34.0095 359.902L32.0288 360.18L33.6368 371.665L35.6174 371.387ZM38.3713 388.943L35.615 371.371L33.6392 371.681L36.3955 389.253L38.3713 388.943ZM34.8624 394.279L38.193 389.685L36.5738 388.511L33.2432 393.105L34.8624 394.279ZM33.9989 398.946L35.0325 393.892L33.0731 393.491L32.0394 398.545L33.9989 398.946ZM35.5972 404.934L33.9893 398.503L32.049 398.988L33.657 405.419L35.5972 404.934ZM44.7586 431.031L35.5707 404.846L33.6835 405.508L42.8714 431.693L44.7586 431.031ZM44.815 439.172V431.362H42.815V439.172H44.815ZM47.8778 450.967L44.7836 438.923L42.8465 439.421L45.9407 451.465L47.8778 450.967ZM49.1858 452.358L47.6727 450.57L46.1459 451.862L47.6591 453.65L49.1858 452.358ZM49.4225 469.649V453.004H47.4225V469.649H49.4225ZM50.9208 478.144L49.4076 469.477L47.4374 469.821L48.9506 478.488L50.9208 478.144ZM63.2258 505L50.8453 477.9L49.0261 478.731L61.4066 505.831L63.2258 505ZM64.275 515.917L63.3121 505.325L61.3203 505.506L62.2832 516.098L64.275 515.917ZM61.7448 519.766L64.0833 516.602L62.475 515.413L60.1364 518.577L61.7448 519.766ZM70.7747 528.97L61.6956 518.516L60.1856 519.827L69.2646 530.282L70.7747 528.97ZM74.9497 530.631L70.4102 528.706L69.6291 530.547L74.1686 532.473L74.9497 530.631ZM81.3622 542.51L75.4471 531.092L73.6713 532.012L79.5864 543.43L81.3622 542.51ZM76.3542 550.953L81.3064 543.524L79.6423 542.415L74.6901 549.843L76.3542 550.953ZM77.6193 563.936L76.5189 550.317L74.5254 550.478L75.6258 564.097L77.6193 563.936ZM72.8286 573.29L77.5057 564.486L75.7395 563.547L71.0624 572.351L72.8286 573.29ZM63.9435 581.271L72.6099 573.568L71.2811 572.073L62.6148 579.776L63.9435 581.271ZM58.3368 586.533C58.5391 585.684 59.0545 584.383 59.9111 583.317C60.7578 582.264 61.8616 581.524 63.2791 581.524V579.524C61.0651 579.524 59.4405 580.71 58.3522 582.064C57.2738 583.406 56.6475 584.993 56.3912 586.07L58.3368 586.533ZM59.4557 594.423L58.3552 586.169L56.3728 586.434L57.4733 594.687L59.4557 594.423ZM56.2635 595.555H58.4645V593.555H56.2635V595.555ZM57.2635 603.359V594.555H55.2635V603.359H57.2635ZM82.2152 604.702L56.3536 602.363L56.1735 604.355L82.0351 606.693L82.2152 604.702ZM99.6289 600.104C99.1036 600.602 97.963 601.697 95.3727 602.697C92.7578 603.707 88.625 604.635 82.1155 604.698L82.1348 606.698C88.8202 606.633 93.2017 605.679 96.0932 604.563C99.0093 603.437 100.367 602.16 101.005 601.555L99.6289 600.104ZM99.9183 599.839C99.8235 599.918 99.7172 600.02 99.6288 600.104L101.006 601.555C101.113 601.452 101.165 601.404 101.198 601.376L99.9183 599.839ZM106.86 596.133C105.869 596.617 104.341 597.377 102.976 598.087C102.293 598.442 101.646 598.787 101.123 599.08C100.634 599.355 100.167 599.632 99.9182 599.839L101.199 601.376C101.28 601.308 101.574 601.121 102.103 600.824C102.598 600.546 103.224 600.212 103.898 599.862C105.245 599.161 106.757 598.409 107.738 597.93L106.86 596.133ZM106.299 592.904V597.031H108.299V592.904H106.299ZM118.838 594.965L107.558 591.938L107.04 593.87L118.32 596.897L118.838 594.965ZM146.368 594.94C141.748 595.574 129.712 596.464 118.716 594.94L118.442 596.921C129.675 598.478 141.905 597.571 146.64 596.921L146.368 594.94ZM145.504 590.016V595.931H147.504V590.016H145.504ZM144.603 587.748L145.566 590.361L147.442 589.67L146.479 587.056L144.603 587.748ZM143.741 584.05L144.567 587.627L146.515 587.177L145.69 583.6L143.741 584.05ZM141.804 581.054L143.868 584.355L145.564 583.295L143.5 579.994L141.804 581.054ZM137.634 578.926L142.173 581.402L143.131 579.646L138.592 577.17L137.634 578.926ZM133.519 571.645L137.233 578.523L138.993 577.573L135.278 570.695L133.519 571.645ZM132.58 564.131L133.405 571.284L135.392 571.055L134.567 563.902L132.58 564.131ZM132.573 560.853V564.016H134.573V560.853H132.573ZM133.456 558.181L132.63 560.52L134.516 561.185L135.341 558.847L133.456 558.181ZM128.33 550.939L133.558 559.056L135.239 557.973L130.012 549.856L128.33 550.939ZM128.171 542.97V550.398H130.171V542.97H128.171ZM126.14 542.151L128.616 543.802L129.726 542.138L127.25 540.487L126.14 542.151ZM125.695 535.266V541.319H127.695V535.266H125.695ZM141.478 528.689L126.346 534.329L127.044 536.203L142.176 530.563L141.478 528.689ZM145.541 528.626H141.827V530.626H145.541V528.626ZM141.664 510.793L144.552 529.777L146.53 529.476L143.641 510.492L141.664 510.793ZM144.595 501.926L141.707 510.317L143.598 510.968L146.487 502.577L144.595 501.926ZM144.541 490.834V502.251H146.541V490.834H144.541ZM145.536 469.397C145.344 470.134 145.2 471.493 145.084 473.111C144.965 474.763 144.869 476.782 144.793 478.902C144.64 483.143 144.564 487.816 144.541 490.826L146.541 490.841C146.564 487.844 146.639 483.191 146.791 478.974C146.867 476.865 146.962 474.873 147.079 473.254C147.198 471.601 147.334 470.43 147.472 469.902L145.536 469.397ZM147.432 450.049C147.249 452.771 146.933 457.014 146.581 460.889C146.224 464.814 145.84 468.231 145.536 469.397L147.472 469.902C147.828 468.536 148.223 464.915 148.573 461.07C148.927 457.175 149.244 452.916 149.428 450.183L147.432 450.049ZM149.906 337.293L147.43 450.094L149.43 450.138L151.906 337.337L149.906 337.293ZM165.137 343.864L151.381 336.435L150.431 338.195L164.187 345.623L165.137 343.864ZM195.7 326.328C190.979 327.958 184.717 331.245 178.851 334.656C172.968 338.076 167.418 341.658 164.099 343.917L165.225 345.57C168.509 343.335 174.019 339.778 179.856 336.385C185.71 332.981 191.829 329.78 196.352 328.219L195.7 326.328ZM210.51 313.682C209.32 316.53 204.636 323.243 195.7 326.328L196.352 328.219C205.904 324.921 210.978 317.749 212.356 314.453L210.51 313.682ZM197.074 286.759C200.098 292.303 207.006 305.582 210.503 314.435L212.363 313.7C208.817 304.725 201.858 291.353 198.83 285.801L197.074 286.759ZM171.637 259.728L197.223 286.965L198.681 285.595L173.094 258.358L171.637 259.728ZM177.429 219L171.377 258.893L173.354 259.193L179.407 219.3L177.429 219ZM180.295 213.712L177.544 218.664L179.292 219.636L182.044 214.683L180.295 213.712ZM180.169 209.658V214.198H182.169V209.658H180.169ZM179.348 205.759C179.467 207.069 179.976 209.099 180.206 209.926L182.133 209.391C181.904 208.567 181.441 206.69 181.34 205.578L179.348 205.759ZM176.498 200.602C176.967 201.272 177.679 202.353 178.283 203.408C178.585 203.936 178.852 204.442 179.047 204.878C179.255 205.342 179.337 205.632 179.348 205.759L181.34 205.578C181.296 205.1 181.093 204.555 180.873 204.062C180.641 203.543 180.339 202.973 180.018 202.414C179.378 201.295 178.631 200.162 178.137 199.455L176.498 200.602ZM175.119 196.043L176.357 200.308L178.278 199.75L177.04 195.486L175.119 196.043ZM177.555 191.27L175.217 195.259L176.942 196.27L179.281 192.281L177.555 191.27ZM177.418 188.474V191.775H179.418V188.474H177.418ZM168.713 170.612L177.517 188.907L179.319 188.04L170.515 169.744L168.713 170.612ZM169.858 158.653L168.62 170.07L170.608 170.286L171.846 158.868L169.858 158.653ZM169.852 154.634V158.76H171.852V154.634H169.852ZM165.657 144.132L169.921 154.999L171.783 154.268L167.519 143.401L165.657 144.132ZM164.767 134.778L165.592 143.857L167.584 143.676L166.758 134.597L164.767 134.778ZM164.763 125.746V134.687H166.763V125.746H164.763ZM160.689 113.963L164.816 126.068L166.709 125.423L162.582 113.318L160.689 113.963ZM158.132 109.007L160.746 114.097L162.525 113.184L159.912 108.094L158.132 109.007ZM154.269 107.836L158.671 109.487L159.373 107.614L154.971 105.964L154.269 107.836ZM111.022 95.8959L154.354 107.864L154.886 105.936L111.554 93.9681L111.022 95.8959ZM96.6223 87.6836L110.791 95.7997L111.785 94.0643L97.6164 85.9481L96.6223 87.6836ZM94.313 83.7133L96.2389 87.29L97.9998 86.3418L96.074 82.7651L94.313 83.7133ZM91.4793 84.2392H95.1935V82.2392H91.4793V84.2392ZM87.879 349.274C89.2418 344.058 92.0148 333.43 92.0791 333.108L90.1179 332.716C90.1204 332.704 90.1144 332.731 90.0872 332.839C90.0642 332.931 90.0314 333.06 89.9898 333.223C89.9066 333.548 89.7891 334.004 89.6452 334.56C89.3574 335.673 88.9645 337.184 88.5305 338.852C87.6624 342.187 86.63 346.143 85.944 348.769L87.879 349.274ZM87.9115 355.409V349.022H85.9115V355.409H87.9115ZM82.6561 368.42L87.8367 355.788L85.9863 355.029L80.8056 367.662L82.6561 368.42ZM84.3468 375.652C82.7083 371.992 82.6076 369.051 82.7225 368.17L80.7393 367.912C80.5702 369.207 80.7535 372.521 82.5214 376.469L84.3468 375.652ZM84.9978 398.221C85.26 395.313 85.5459 390.716 85.5519 386.359C85.5548 384.181 85.488 382.047 85.3099 380.206C85.1348 378.395 84.8436 376.761 84.3468 375.652L82.5214 376.469C82.8763 377.261 83.1469 378.616 83.3192 380.398C83.4886 382.15 83.5548 384.213 83.5519 386.356C83.546 390.641 83.2642 395.177 83.0059 398.041L84.9978 398.221ZM91.9567 410.834C91.9567 409.798 91.6067 408.617 91.1186 407.45C90.6223 406.263 89.9441 405 89.2049 403.775C87.7265 401.324 85.9587 398.946 84.7764 397.499L83.2273 398.764C84.3633 400.155 86.0729 402.454 87.4923 404.808C88.2021 405.984 88.8279 407.156 89.2734 408.221C89.7272 409.306 89.9567 410.196 89.9567 410.834H91.9567ZM87.7284 420.635C88.6646 419.105 89.7113 417.395 90.5209 415.735C91.3188 414.099 91.9567 412.377 91.9567 410.834H89.9567C89.9567 411.898 89.4954 413.275 88.7234 414.858C87.963 416.417 86.969 418.044 86.0222 419.592L87.7284 420.635ZM85.3139 425.104C85.4556 424.636 85.7551 424.005 86.1921 423.219C86.6232 422.443 87.1538 421.575 87.7284 420.635L86.0222 419.592C85.4536 420.522 84.8992 421.428 84.4439 422.247C83.9945 423.056 83.6063 423.842 83.3995 424.526L85.3139 425.104ZM86.0165 428.754C85.6626 428.179 85.3787 427.707 85.2265 427.153C85.0831 426.632 85.0465 425.989 85.3139 425.104L83.3995 424.526C83.028 425.754 83.0502 426.782 83.298 427.684C83.537 428.553 83.9767 429.256 84.3136 429.802L86.0165 428.754ZM86.878 430.496C86.6808 429.82 86.3085 429.228 86.0165 428.754L84.3136 429.802C84.6347 430.324 84.8497 430.685 84.958 431.056L86.878 430.496ZM86.9253 430.658C86.9082 430.599 86.8925 430.546 86.878 430.496L84.958 431.056C84.9731 431.108 84.9893 431.163 85.0063 431.221L86.9253 430.658ZM87.528 445.562C89.247 438.543 87.4898 432.579 86.9253 430.658L85.0063 431.221C85.5531 433.083 87.1714 438.61 85.5854 445.087L87.528 445.562ZM94.1561 460.618C94.4538 452.161 89.6771 446.402 87.1541 444.523L85.9593 446.126C88.0728 447.701 92.4273 452.88 92.1573 460.547L94.1561 460.618ZM95.2895 490.812C94.7922 484.064 93.8744 468.617 94.1561 460.618L92.1573 460.547C91.8712 468.672 92.7986 484.223 93.2949 490.959L95.2895 490.812ZM98.896 494.004L94.9927 490.172L93.5916 491.599L97.4948 495.432L98.896 494.004ZM100.896 491.298C100.625 491.399 100.316 491.622 100.096 491.787C99.8319 491.985 99.5265 492.232 99.219 492.49C98.6023 493.006 97.9417 493.595 97.5206 493.98L98.8701 495.456C99.277 495.084 99.9151 494.516 100.504 494.022C100.799 493.775 101.073 493.554 101.294 493.388C101.559 493.19 101.642 493.154 101.598 493.17L100.896 491.298ZM104.673 489.944C103.615 490.32 101.36 491.124 100.896 491.298L101.598 493.17C102.042 493.004 104.273 492.209 105.343 491.828L104.673 489.944ZM104.505 452.196L104.008 490.873L106.008 490.899L106.505 452.221L104.505 452.196ZM103.464 440.924C102.594 444.894 102.572 447.697 102.954 449.616C103.324 451.476 104.126 452.712 105.116 453.13L105.894 451.287C105.819 451.256 105.238 450.845 104.916 449.226C104.605 447.667 104.584 445.159 105.417 441.351L103.464 440.924ZM105.257 434.836C105.25 434.73 105.29 434.682 105.212 434.89C105.162 435.025 105.003 435.418 104.854 435.828C104.523 436.745 104.049 438.25 103.464 440.924L105.417 441.351C105.988 438.748 106.439 437.328 106.735 436.508C106.901 436.051 106.981 435.873 107.086 435.589C107.165 435.378 107.278 435.063 107.253 434.696L105.257 434.836ZM103.509 431.141C104.14 432.752 104.603 433.676 104.918 434.261C105.09 434.581 105.169 434.712 105.24 434.851C105.299 434.969 105.264 434.931 105.257 434.836L107.253 434.696C107.23 434.381 107.115 434.128 107.024 433.948C106.944 433.79 106.802 433.542 106.679 433.312C106.403 432.799 105.974 431.948 105.372 430.411L103.509 431.141ZM102.312 428.2C102.69 429.109 103.091 430.074 103.509 431.141L105.372 430.411C104.945 429.322 104.536 428.34 104.159 427.432L102.312 428.2ZM100.045 412.602C99.4945 416.273 99.5286 418.935 99.9857 421.33C100.439 423.706 101.302 425.771 102.312 428.2L104.159 427.432C103.135 424.97 102.358 423.094 101.95 420.955C101.546 418.836 101.496 416.41 102.023 412.899L100.045 412.602ZM100.104 412.212L100.045 412.602L102.023 412.899L102.082 412.509L100.104 412.212ZM100.618 397.319C101.1 399.931 101.267 401.611 101.175 403.628C101.082 405.683 100.721 408.1 100.104 412.212L102.082 412.509C102.692 408.441 103.074 405.902 103.173 403.718C103.274 401.496 103.082 399.654 102.585 396.956L100.618 397.319ZM98.1311 382.822C98.628 385.85 99.8216 392.993 100.618 397.319L102.585 396.956C101.792 392.652 100.601 385.526 100.105 382.498L98.1311 382.822ZM96.7702 360.838C96.9413 365.629 97.7424 377.438 98.1205 382.732L100.115 382.589C99.7365 377.284 98.9385 365.514 98.7689 360.767L96.7702 360.838ZM90.1392 333.195C91.2129 336.84 92.8344 342.607 94.2078 348.054C95.5937 353.551 96.6896 358.582 96.7702 360.838L98.7689 360.767C98.6792 358.253 97.516 352.994 96.1471 347.565C94.7657 342.087 93.1369 336.294 92.0578 332.63L90.1392 333.195ZM51.2802 94.6584H45.9972V96.6584H51.2802V94.6584Z" fill="#FDFAF8" mask="url(#path-2-inside-1_369_64162)"/>
</g>
</svg>
